<svg width="121" height="96" viewBox="0 0 121 96" fill="none" xmlns="http://www.w3.org/2000/svg">
<path d="M16.6602 17.1445L33.1681 49.3223H31.2343L13.9067 16.2248L16.6602 17.1445ZM21.6548 19.0862L35.2044 49.3223H37.3431L24.3955 20.1081L21.642 19.0862H21.6548ZM28.5833 21.8454L39.4947 49.3223H41.6334L30.9269 22.8673L28.5833 21.8454ZM34.6025 23.6848L43.0678 49.3223H45.1041L36.4467 21.8454L34.6153 23.6848H34.6025ZM38.8415 19.9037L46.833 49.3223H48.7668L40.5064 18.0643L38.8415 19.9037ZM49.9963 49.3223H52.2375L45.1041 14.1937L43.4648 15.8416L49.9963 49.3223ZM48.2545 11.0258L53.3517 49.3223H55.183L49.9835 9.39071L48.2545 11.0258ZM53.4541 6.42714L56.31 49.3223H58.1414L55.183 4.48549L53.4541 6.42714ZM103.183 17.1445L86.675 49.3223H88.6088L105.936 16.2248L103.183 17.1445ZM95.4348 20.1081L82.4871 49.3223H84.6259L98.1755 19.0862L95.422 20.1081H95.4348ZM88.9162 22.8673L78.2097 49.3223H80.3484L91.2598 21.8454L88.9162 22.8673ZM83.4092 21.8454L74.7518 49.3223H76.7881L85.2534 23.6848L83.4221 21.8454H83.4092ZM79.3367 18.0643L71.0763 49.3223H73.0101L81.0015 19.9037L79.3367 18.0643ZM76.3783 15.8416L74.739 14.1937L67.6056 49.3223H69.8468L76.3783 15.8416ZM69.8468 9.39071L64.6473 49.3223H66.4786L71.5757 11.0258L69.8468 9.39071ZM64.6601 4.48549L61.7017 49.3223H63.5331L66.389 6.42714L64.6601 4.48549ZM61.0998 1.27921L60.024 0.5L58.9482 1.33031V49.3223H61.087V1.27921H61.0998ZM8.33573 60.5889C9.39869 60.5889 10.3592 60.8955 11.2173 61.5087L13.1895 59.5287C11.7808 58.4046 10.1543 57.8425 8.33573 57.8425C7.29838 57.8425 6.29944 58.0341 5.35174 58.4301C4.40404 58.8261 3.5844 59.3499 2.90564 60.0269C2.22688 60.6911 1.67619 61.4959 1.26637 62.4028C0.856551 63.3226 0.651642 64.2934 0.651642 65.3025V65.3281C0.651642 66.3372 0.856551 67.3081 1.26637 68.2278C1.67619 69.1475 2.22688 69.9395 2.90564 70.6038C3.5844 71.268 4.40404 71.8045 5.35174 72.1877C6.29944 72.5837 7.29838 72.7753 8.33573 72.7753C10.1671 72.7753 11.7808 72.2133 13.1895 71.0892L11.2173 69.1092C10.3592 69.7351 9.39869 70.0417 8.33573 70.0417C7.00382 70.0417 5.86401 69.5818 4.91631 68.6621C3.96861 67.7424 3.49475 66.631 3.48195 65.3281C3.48195 64.0251 3.9558 62.9138 4.9035 61.9941C5.85121 61.0743 7.00382 60.6145 8.33573 60.6145M37.2919 62.2496C37.2919 61.036 36.8565 59.9886 35.9856 59.1199C35.1148 58.2513 34.0774 57.817 32.848 57.817H24.8949V72.7498H27.6484V66.6438H32.5278L34.7562 72.7498H37.5096L35.0635 66.0562C35.7423 65.673 36.2802 65.1365 36.6772 64.4595C37.0742 63.7824 37.2791 63.0415 37.2791 62.2368M32.8736 60.5889C33.3346 60.5889 33.7316 60.755 34.0518 61.0743C34.372 61.3937 34.5385 61.7897 34.5385 62.2496C34.5385 62.7094 34.372 63.1054 34.0518 63.4248C33.7316 63.7441 33.3346 63.9102 32.8736 63.9102H27.6612V60.5762H32.8736V60.5889ZM56.7455 57.8298C55.3879 57.8298 54.1329 58.1619 52.9931 58.8389C51.8405 59.5031 50.9312 60.4229 50.2652 61.5725C49.5993 62.7222 49.2535 63.974 49.2535 65.3281C49.2535 66.3372 49.4584 67.3081 49.8554 68.2278C50.2524 69.1475 50.7903 69.9523 51.4562 70.6165C52.1222 71.2808 52.9162 71.8173 53.8383 72.2133C54.7604 72.6093 55.7337 72.8009 56.7455 72.8009C58.103 72.8009 59.3581 72.4688 60.5107 71.7917C61.6633 71.1275 62.5726 70.2205 63.2513 69.0709C63.9173 67.9212 64.2631 66.6694 64.2631 65.3281C64.2631 64.3189 64.0582 63.3481 63.6611 62.4284C63.2641 61.5087 62.7262 60.7039 62.0603 60.0397C61.3943 59.3754 60.6003 58.8389 59.6654 58.4429C58.7305 58.0469 57.77 57.8425 56.7455 57.8425M53.3901 68.6493C52.468 67.7296 52.0069 66.6183 52.0069 65.3153C52.0069 64.0124 52.468 62.8883 53.4029 61.9685C54.325 61.0488 55.452 60.5889 56.7455 60.5889C58.0389 60.5889 59.166 61.0488 60.088 61.9685C61.0229 62.8883 61.484 64.0124 61.484 65.3153C61.484 66.6183 61.0229 67.7296 60.1008 68.6493C59.1788 69.5691 58.0518 70.0289 56.7455 70.0289C55.4392 70.0289 54.3122 69.5691 53.3901 68.6493ZM86.3676 57.817H83.3196L80.31 65.9412L77.3004 57.817H74.3292L80.31 72.7626L84.8436 61.432L89.3772 72.7626L95.358 57.817H92.3868L89.3772 65.9412L86.3676 57.817ZM107.089 57.817V72.7626H109.842V64.7149L119.191 72.7626V57.817H116.425V66.0434L107.089 57.817Z" fill="url(#paint0_linear_4012_132)"/>
<path d="M7.54231 82.2137C7.34898 81.8071 7.06898 81.4937 6.70231 81.2737C6.33564 81.0471 5.90898 80.9337 5.42231 80.9337C4.93564 80.9337 4.49564 81.0471 4.10231 81.2737C3.71564 81.4937 3.40898 81.8137 3.18231 82.2337C2.96231 82.6471 2.85231 83.1271 2.85231 83.6737C2.85231 84.2204 2.96231 84.7004 3.18231 85.1137C3.40898 85.5271 3.71564 85.8471 4.10231 86.0737C4.49564 86.2937 4.93564 86.4037 5.42231 86.4037C6.10231 86.4037 6.66231 86.2004 7.10231 85.7937C7.54231 85.3871 7.79898 84.8371 7.87231 84.1437H5.09231V83.4037H8.84231V84.1037C8.78898 84.6771 8.60898 85.2037 8.30231 85.6837C7.99564 86.1571 7.59231 86.5337 7.09231 86.8137C6.59231 87.0871 6.03564 87.2237 5.42231 87.2237C4.77564 87.2237 4.18564 87.0737 3.65231 86.7737C3.11898 86.4671 2.69564 86.0437 2.38231 85.5037C2.07564 84.9637 1.92231 84.3537 1.92231 83.6737C1.92231 82.9937 2.07564 82.3837 2.38231 81.8437C2.69564 81.2971 3.11898 80.8737 3.65231 80.5737C4.18564 80.2671 4.77564 80.1137 5.42231 80.1137C6.16231 80.1137 6.81564 80.2971 7.38231 80.6637C7.95564 81.0304 8.37231 81.5471 8.63231 82.2137H7.54231ZM15.0055 87.2337C14.3588 87.2337 13.7688 87.0837 13.2355 86.7837C12.7022 86.4771 12.2788 86.0537 11.9655 85.5137C11.6588 84.9671 11.5055 84.3537 11.5055 83.6737C11.5055 82.9937 11.6588 82.3837 11.9655 81.8437C12.2788 81.2971 12.7022 80.8737 13.2355 80.5737C13.7688 80.2671 14.3588 80.1137 15.0055 80.1137C15.6588 80.1137 16.2522 80.2671 16.7855 80.5737C17.3188 80.8737 17.7388 81.2937 18.0455 81.8337C18.3522 82.3737 18.5055 82.9871 18.5055 83.6737C18.5055 84.3604 18.3522 84.9737 18.0455 85.5137C17.7388 86.0537 17.3188 86.4771 16.7855 86.7837C16.2522 87.0837 15.6588 87.2337 15.0055 87.2337ZM15.0055 86.4437C15.4922 86.4437 15.9288 86.3304 16.3155 86.1037C16.7088 85.8771 17.0155 85.5537 17.2355 85.1337C17.4622 84.7137 17.5755 84.2271 17.5755 83.6737C17.5755 83.1137 17.4622 82.6271 17.2355 82.2137C17.0155 81.7937 16.7122 81.4704 16.3255 81.2437C15.9388 81.0171 15.4988 80.9037 15.0055 80.9037C14.5122 80.9037 14.0722 81.0171 13.6855 81.2437C13.2988 81.4704 12.9922 81.7937 12.7655 82.2137C12.5455 82.6271 12.4355 83.1137 12.4355 83.6737C12.4355 84.2271 12.5455 84.7137 12.7655 85.1337C12.9922 85.5537 13.2988 85.8771 13.6855 86.1037C14.0788 86.3304 14.5188 86.4437 15.0055 86.4437ZM22.4168 86.4237H24.8568V87.1637H21.5068V80.1937H22.4168V86.4237ZM29.7932 80.1937C30.5532 80.1937 31.2099 80.3371 31.7632 80.6237C32.3232 80.9037 32.7499 81.3071 33.0432 81.8337C33.3432 82.3604 33.4932 82.9804 33.4932 83.6937C33.4932 84.4071 33.3432 85.0271 33.0432 85.5537C32.7499 86.0737 32.3232 86.4737 31.7632 86.7537C31.2099 87.0271 30.5532 87.1637 29.7932 87.1637H27.6232V80.1937H29.7932ZM29.7932 86.4137C30.6932 86.4137 31.3799 86.1771 31.8532 85.7037C32.3266 85.2237 32.5632 84.5537 32.5632 83.6937C32.5632 82.8271 32.3232 82.1504 31.8432 81.6637C31.3699 81.1771 30.6866 80.9337 29.7932 80.9337H28.5332V86.4137H29.7932ZM46.3096 87.1637L45.3996 86.2437C45.0596 86.5971 44.6962 86.8604 44.3096 87.0337C43.9229 87.2004 43.4862 87.2837 42.9996 87.2837C42.5196 87.2837 42.0929 87.1971 41.7196 87.0237C41.3529 86.8504 41.0662 86.6037 40.8596 86.2837C40.6596 85.9637 40.5596 85.5904 40.5596 85.1637C40.5596 84.6771 40.6962 84.2504 40.9696 83.8837C41.2496 83.5104 41.6596 83.2171 42.1996 83.0037C41.9862 82.7504 41.8329 82.5171 41.7396 82.3037C41.6462 82.0904 41.5996 81.8571 41.5996 81.6037C41.5996 81.3104 41.6729 81.0471 41.8196 80.8137C41.9729 80.5737 42.1896 80.3871 42.4696 80.2537C42.7496 80.1204 43.0729 80.0537 43.4396 80.0537C43.7996 80.0537 44.1129 80.1237 44.3796 80.2637C44.6462 80.4037 44.8462 80.6004 44.9796 80.8537C45.1129 81.1004 45.1729 81.3771 45.1596 81.6837H44.2496C44.2562 81.4104 44.1796 81.1971 44.0196 81.0437C43.8596 80.8837 43.6529 80.8037 43.3996 80.8037C43.1329 80.8037 42.9162 80.8804 42.7496 81.0337C42.5896 81.1804 42.5096 81.3704 42.5096 81.6037C42.5096 81.8037 42.5629 81.9971 42.6696 82.1837C42.7829 82.3704 42.9696 82.6004 43.2296 82.8737L45.3096 84.9637L45.4896 84.6837L46.1696 83.5437H47.1496L46.3296 84.9637C46.2162 85.1637 46.0829 85.3737 45.9296 85.5937L47.4996 87.1637H46.3096ZM42.9996 86.5037C43.3596 86.5037 43.6829 86.4337 43.9696 86.2937C44.2629 86.1537 44.5396 85.9371 44.7996 85.6437L42.7496 83.5837C41.8962 83.9104 41.4696 84.4271 41.4696 85.1337C41.4696 85.5271 41.6096 85.8537 41.8896 86.1137C42.1762 86.3737 42.5462 86.5037 42.9996 86.5037ZM56.7882 80.1937C57.5482 80.1937 58.2048 80.3371 58.7582 80.6237C59.3182 80.9037 59.7448 81.3071 60.0382 81.8337C60.3382 82.3604 60.4882 82.9804 60.4882 83.6937C60.4882 84.4071 60.3382 85.0271 60.0382 85.5537C59.7448 86.0737 59.3182 86.4737 58.7582 86.7537C58.2048 87.0271 57.5482 87.1637 56.7882 87.1637H54.6182V80.1937H56.7882ZM56.7882 86.4137C57.6882 86.4137 58.3748 86.1771 58.8482 85.7037C59.3215 85.2237 59.5582 84.5537 59.5582 83.6937C59.5582 82.8271 59.3182 82.1504 58.8382 81.6637C58.3648 81.1771 57.6815 80.9337 56.7882 80.9337H55.5282V86.4137H56.7882ZM64.3985 80.1937V87.1637H63.4885V80.1937H64.3985ZM71.8694 85.6137H68.8294L68.2694 87.1637H67.3094L69.8294 80.2337H70.8794L73.3894 87.1637H72.4294L71.8694 85.6137ZM71.6094 84.8737L70.3494 81.3537L69.0894 84.8737H71.6094ZM83.3577 80.2437V87.1637H82.4477V82.0037L80.1477 87.1637H79.5077L77.1977 81.9937V87.1637H76.2877V80.2437H77.2677L79.8277 85.9637L82.3877 80.2437H83.3577ZM89.861 87.2337C89.2143 87.2337 88.6243 87.0837 88.091 86.7837C87.5577 86.4771 87.1343 86.0537 86.821 85.5137C86.5143 84.9671 86.361 84.3537 86.361 83.6737C86.361 82.9937 86.5143 82.3837 86.821 81.8437C87.1343 81.2971 87.5577 80.8737 88.091 80.5737C88.6243 80.2671 89.2143 80.1137 89.861 80.1137C90.5143 80.1137 91.1077 80.2671 91.641 80.5737C92.1743 80.8737 92.5943 81.2937 92.901 81.8337C93.2077 82.3737 93.361 82.9871 93.361 83.6737C93.361 84.3604 93.2077 84.9737 92.901 85.5137C92.5943 86.0537 92.1743 86.4771 91.641 86.7837C91.1077 87.0837 90.5143 87.2337 89.861 87.2337ZM89.861 86.4437C90.3477 86.4437 90.7843 86.3304 91.171 86.1037C91.5643 85.8771 91.871 85.5537 92.091 85.1337C92.3177 84.7137 92.431 84.2271 92.431 83.6737C92.431 83.1137 92.3177 82.6271 92.091 82.2137C91.871 81.7937 91.5677 81.4704 91.181 81.2437C90.7943 81.0171 90.3543 80.9037 89.861 80.9037C89.3677 80.9037 88.9277 81.0171 88.541 81.2437C88.1543 81.4704 87.8477 81.7937 87.621 82.2137C87.401 82.6271 87.291 83.1137 87.291 83.6737C87.291 84.2271 87.401 84.7137 87.621 85.1337C87.8477 85.5537 88.1543 85.8771 88.541 86.1037C88.9343 86.3304 89.3743 86.4437 89.861 86.4437ZM101.842 87.1637H100.932L97.2723 81.6137V87.1637H96.3623V80.1837H97.2723L100.932 85.7237V80.1837H101.842V87.1637ZM107.364 80.1937C108.124 80.1937 108.78 80.3371 109.334 80.6237C109.894 80.9037 110.32 81.3071 110.614 81.8337C110.914 82.3604 111.064 82.9804 111.064 83.6937C111.064 84.4071 110.914 85.0271 110.614 85.5537C110.32 86.0737 109.894 86.4737 109.334 86.7537C108.78 87.0271 108.124 87.1637 107.364 87.1637H105.194V80.1937H107.364ZM107.364 86.4137C108.264 86.4137 108.95 86.1771 109.424 85.7037C109.897 85.2237 110.134 84.5537 110.134 83.6937C110.134 82.8271 109.894 82.1504 109.414 81.6637C108.94 81.1771 108.257 80.9337 107.364 80.9337H106.104V86.4137H107.364ZM116.274 87.2337C115.814 87.2337 115.401 87.1537 115.034 86.9937C114.674 86.8271 114.391 86.6004 114.184 86.3137C113.977 86.0204 113.871 85.6837 113.864 85.3037H114.834C114.867 85.6304 115.001 85.9071 115.234 86.1337C115.474 86.3537 115.821 86.4637 116.274 86.4637C116.707 86.4637 117.047 86.3571 117.294 86.1437C117.547 85.9237 117.674 85.6437 117.674 85.3037C117.674 85.0371 117.601 84.8204 117.454 84.6537C117.307 84.4871 117.124 84.3604 116.904 84.2737C116.684 84.1871 116.387 84.0937 116.014 83.9937C115.554 83.8737 115.184 83.7537 114.904 83.6337C114.631 83.5137 114.394 83.3271 114.194 83.0737C114.001 82.8137 113.904 82.4671 113.904 82.0337C113.904 81.6537 114.001 81.3171 114.194 81.0237C114.387 80.7304 114.657 80.5037 115.004 80.3437C115.357 80.1837 115.761 80.1037 116.214 80.1037C116.867 80.1037 117.401 80.2671 117.814 80.5937C118.234 80.9204 118.471 81.3537 118.524 81.8937H117.524C117.491 81.6271 117.351 81.3937 117.104 81.1937C116.857 80.9871 116.531 80.8837 116.124 80.8837C115.744 80.8837 115.434 80.9837 115.194 81.1837C114.954 81.3771 114.834 81.6504 114.834 82.0037C114.834 82.2571 114.904 82.4637 115.044 82.6237C115.191 82.7837 115.367 82.9071 115.574 82.9937C115.787 83.0737 116.084 83.1671 116.464 83.2737C116.924 83.4004 117.294 83.5271 117.574 83.6537C117.854 83.7737 118.094 83.9637 118.294 84.2237C118.494 84.4771 118.594 84.8237 118.594 85.2637C118.594 85.6037 118.504 85.9237 118.324 86.2237C118.144 86.5237 117.877 86.7671 117.524 86.9537C117.171 87.1404 116.754 87.2337 116.274 87.2337Z" fill="#E5E0DA"/>
<defs>
<linearGradient id="paint0_linear_4012_132" x1="0.651642" y1="36.6377" x2="119.191" y2="36.6377" gradientUnits="userSpaceOnUse">
<stop stop-color="#EBC07D"/>
<stop offset="0.19" stop-color="#DFB77C"/>
<stop offset="0.58" stop-color="#EABE80"/>
<stop offset="0.73" stop-color="#C0832B"/>
<stop offset="0.89" stop-color="#DBB886"/>
<stop offset="1" stop-color="#EEDCC4"/>
</linearGradient>
</defs>
</svg>
